PathFileType	4	(X/Y/Z)	SUBJ63_3_walk_RCNL2025.trc
DataRate	CameraRate	NumFrames	NumMarkers	Units	OrigDataRate	OrigDataStartFrame	OrigNumFrames
100	100	10	25	mm	100	58	228
Frame#	Time	R_Shoulder			L_Shoulder			C7			J_Notch			R_Elbow			L_Elbow			R_Wrist			L_Wrist			R_Asis			L_Asis			Sacral			Thoracic			Sternum			R_Thigh_Lateral			R_Knee_Lateral			R_Shank_Lateral			R_Ankle_Lateral			R_Heel			R_Toe			L_Thigh_Lateral			L_Knee_Lateral			L_Shank_Lateral			L_Ankle_Lateral			L_Heel			L_Toe		
		X1	Y1	Z1	X2	Y2	Z2	X3	Y3	Z3	X4	Y4	Z4	X5	Y5	Z5	X6	Y6	Z6	X7	Y7	Z7	X8	Y8	Z8	X9	Y9	Z9	X10	Y10	Z10	X11	Y11	Z11	X12	Y12	Z12	X13	Y13	Z13	X14	Y14	Z14	X15	Y15	Z15	X16	Y16	Z16	X17	Y17	Z17	X18	Y18	Z18	X19	Y19	Z19	X20	Y20	Z20	X21	Y21	Z21	X22	Y22	Z22	X23	Y23	Z23	X24	Y24	Z24	X25	Y25	Z25
58	0.57000000	-177.799881	1274.005981	-134.117172	-228.366501	1265.212646	-465.220947	-276.164642	1336.029419	-295.535126	-164.395569	1223.422974	-305.391998	-173.853287	1008.183350	-4.929379	-369.946686	993.033447	-538.978333	-61.470295	808.780365	19.694080	-378.494385	785.042725	-621.584869	-171.850388	825.623779	-153.574081	-136.158813	819.688354	-406.421631	-377.992340	836.379456	-317.932800	-363.084137	1157.849854	-273.494354	-123.497986	1041.981201	-301.199921	-339.982727	501.668945	-132.375565	-358.663147	449.260315	-184.728287	-438.679016	279.492218	-156.825439	-498.440979	82.730598	-248.837616	-534.896851	93.901611	-303.827972	-387.645782	46.640697	-241.745743	-96.348022	454.185486	-487.986603	-83.069931	440.547729	-419.833496	-20.704185	261.940948	-452.186615	48.214046	75.297646	-373.368805	8.391659	48.445206	-318.924988	161.050903	106.938255	-374.922150
59	0.58000000	-162.602890	1272.129395	-134.542923	-212.925003	1262.620728	-465.659882	-261.132965	1333.906250	-296.119629	-149.070160	1221.055786	-305.468262	-157.529083	1006.979492	-4.846128	-357.242035	991.688843	-538.660522	-43.642677	808.519135	20.533585	-371.190048	784.535645	-621.574341	-157.126175	824.255615	-152.746399	-119.428085	818.262512	-405.569885	-361.791138	834.083008	-319.360291	-347.990021	1155.747070	-274.104034	-107.851624	1039.526733	-300.380493	-328.622742	501.810089	-130.957108	-347.500549	449.268158	-183.102676	-431.364655	281.355652	-155.097626	-497.045105	86.254852	-246.834335	-533.264343	98.926041	-301.494690	-387.313690	46.670120	-240.935135	-79.124313	452.083832	-486.308258	-65.870392	438.780945	-417.943512	-1.503359	260.758362	-449.478424	67.343147	74.538559	-370.125580	27.070267	47.404018	-316.110077	180.069519	106.424767	-370.355560
60	0.59000000	-147.479965	1270.496338	-135.030045	-197.234573	1260.311035	-466.255310	-245.947891	1332.004028	-296.900177	-133.587769	1219.010620	-305.672638	-141.654480	1005.880188	-4.868867	-343.798859	990.437866	-538.501648	-26.387404	808.319855	21.303518	-363.041153	784.113556	-621.487366	-142.122437	823.005859	-152.090561	-102.624512	817.283142	-404.758270	-345.374146	832.025940	-320.662476	-332.685974	1153.806519	-274.903198	-92.018867	1037.486206	-299.658295	-316.515747	501.937897	-129.315063	-335.511230	449.187805	-181.178680	-423.417084	283.402679	-153.001785	-495.253357	90.178879	-244.464294	-531.166260	104.564262	-298.731415	-386.905701	46.639236	-240.065765	-60.715874	451.250702	-484.733276	-48.004322	437.496704	-416.188660	16.187048	259.313538	-446.901245	82.756447	72.974113	-367.056488	41.794716	46.220276	-313.384552	195.575607	103.835747	-366.103516
61	0.60000000	-132.438690	1269.149292	-135.571503	-181.299515	1258.322876	-467.002411	-230.611526	1330.340942	-297.872620	-117.946953	1217.335571	-306.011993	-126.216782	1004.914856	-4.991163	-329.613281	989.299683	-538.491821	-9.737337	808.178711	21.987938	-353.994858	783.786102	-621.351776	-126.812126	821.849670	-151.619415	-85.723404	816.668945	-404.021271	-328.756378	830.239075	-321.798737	-317.155151	1152.044800	-275.882477	-75.996040	1035.897217	-299.078369	-303.590088	501.998444	-127.458313	-322.588226	448.975861	-178.956635	-414.800415	285.665161	-150.581451	-492.904297	94.539406	-241.809052	-528.380554	110.871490	-295.640656	-386.361359	46.530052	-239.203613	-41.322556	451.360107	-483.244141	-29.616461	436.621979	-414.567902	32.420589	257.605438	-444.493439	94.847946	70.700478	-364.230225	52.932384	44.986904	-310.874176	207.957733	99.340141	-362.174896
62	0.61000000	-117.479729	1268.118286	-136.160065	-165.125137	1256.676147	-467.890869	-215.132355	1328.928101	-299.026733	-102.150261	1216.053711	-306.484344	-111.186913	1004.112610	-5.210074	-314.700317	988.282593	-538.616760	6.285173	808.086365	22.572467	-344.007706	783.560699	-621.189972	-111.187767	820.763123	-151.346405	-68.706039	816.327759	-403.398407	-311.969971	828.713806	-322.748749	-301.398041	1150.478271	-277.031036	-59.778728	1034.775879	-298.673645	-289.747833	501.930237	-125.385406	-308.595459	448.581329	-176.428711	-405.420288	288.163391	-147.861130	-489.812042	99.386833	-238.936188	-524.654175	117.900681	-292.313660	-385.618683	46.341000	-238.407379	-21.157322	452.084961	-481.830627	-10.898296	436.085510	-413.083344	47.346680	255.721573	-442.284637	104.143463	67.948685	-361.726105	61.003216	43.899082	-308.691498	217.705063	93.277451	-358.608063
63	0.62000000	-102.593330	1267.420532	-136.787460	-148.716995	1255.369995	-468.903900	-199.522125	1327.775757	-300.344757	-86.207451	1215.165039	-307.078949	-96.524223	1003.499084	-5.524615	-299.092224	987.386963	-538.861877	21.669895	808.029785	23.046348	-333.045837	783.439270	-621.016479	-95.265671	819.728760	-151.288300	-51.570995	816.177368	-402.929016	-295.063080	827.407227	-323.510284	-285.434601	1149.130615	-278.335388	-43.364250	1034.117676	-298.462189	-274.867798	501.667877	-123.088524	-293.376923	447.948517	-173.583176	-395.114136	290.894043	-144.848953	-485.773712	104.792221	-235.883865	-519.717102	125.702393	-288.814941	-384.620544	46.114861	-237.701569	-0.464745	453.200439	-480.505829	7.925327	435.837738	-411.752472	61.197407	253.819778	-440.301147	111.244934	65.033012	-359.628143	66.647354	43.174164	-306.920105	225.356110	86.112213	-355.469391
64	0.63000000	-87.755753	1267.059570	-137.444489	-132.081070	1254.387329	-470.017029	-183.792770	1326.896606	-301.799591	-70.137222	1214.652954	-307.776123	-82.184326	1003.093628	-5.932706	-282.836304	986.609680	-539.214539	36.417983	807.993896	23.404363	-321.075073	783.412354	-620.845459	-79.089775	818.738708	-151.462708	-34.344883	816.163452	-402.646881	-278.097595	826.258484	-324.090912	-269.301392	1148.033081	-279.774841	-26.760044	1033.897827	-298.444397	-258.812195	501.145020	-120.559525	-276.774597	447.021515	-170.412506	-383.651245	293.820160	-141.543274	-480.579407	110.849586	-232.655304	-513.299927	134.323456	-285.173798	-383.305145	45.961075	-237.063309	20.432535	454.585999	-479.311523	26.616989	435.858368	-410.611725	74.274513	252.093155	-438.570770	116.750565	62.276890	-358.003052	70.553169	42.966354	-305.609497	231.430786	78.382622	-352.831451
65	0.64000000	-72.928642	1267.025391	-138.121887	-115.227280	1253.702026	-471.198090	-167.955627	1326.304199	-303.352661	-53.967136	1214.488647	-308.548828	-68.125137	1002.906250	-6.429153	-265.992035	985.948425	-539.663391	50.540680	807.964050	23.645944	-308.050262	783.455475	-620.699707	-62.729725	817.795593	-151.880920	-17.087927	816.269409	-402.577057	-261.145020	825.209778	-324.499298	-253.046021	1147.217163	-281.314606	-9.993919	1034.072632	-298.603180	-241.437546	500.298737	-117.793694	-258.649902	445.748962	-166.924118	-370.751831	296.868774	-137.939270	-474.025574	117.656792	-229.232040	-505.153809	143.798508	-281.389404	-381.578583	46.058418	-236.424286	41.128868	456.171234	-478.312927	44.951027	436.143311	-409.707397	86.915405	250.712646	-437.121002	121.161873	59.933685	-356.867859	73.340942	43.311874	-304.765289	236.350769	70.644157	-350.731964
66	0.65000000	-58.063496	1267.292114	-138.813766	-98.175064	1253.288330	-472.407410	-152.026321	1326.004761	-304.953247	-37.732162	1214.634766	-309.364929	-54.309860	1002.936401	-7.005110	-248.628342	985.404419	-540.197266	64.058636	807.926056	23.772589	-293.915070	783.531464	-620.610107	-46.273209	816.910767	-152.539932	0.110462	816.513733	-402.732452	-244.279068	824.226257	-324.741486	-236.722504	1146.703125	-282.902649	6.879938	1034.581543	-298.907501	-222.608917	499.076569	-114.794487	-238.901489	444.088776	-163.153214	-356.120758	299.934692	-134.043549	-465.925751	125.277855	-225.602188	-495.073639	154.129150	-277.449890	-379.281555	46.643139	-235.674194	61.205269	457.878326	-477.576660	62.730282	436.669739	-409.073730	99.418991	249.753403	-435.962769	124.818909	58.133240	-356.166901	75.466843	44.120914	-304.337128	240.385422	63.398434	-349.131927
67	0.66000000	-43.112003	1267.817993	-139.520279	-80.957855	1253.124756	-473.599426	-136.032364	1325.989502	-306.540771	-21.471468	1215.046753	-310.190033	-40.707733	1003.171997	-7.647804	-230.820297	984.980591	-540.804626	77.001583	807.864014	23.786503	-278.612000	783.595917	-620.608948	-29.815062	816.099365	-153.419022	17.148275	816.934814	-403.110474	-227.566742	823.309448	-324.824219	-220.388519	1146.496216	-284.475159	23.783190	1035.349365	-299.317657	-202.214844	497.446014	-111.584282	-217.477432	442.016968	-159.173233	-339.488129	302.889923	-129.894363	-456.107971	133.712891	-221.786209	-482.917664	165.252563	-273.360016	-376.160919	47.983452	-234.662186	80.337860	459.584656	-477.131897	79.779106	437.362518	-408.709686	111.931206	249.146240	-435.064148	127.907463	56.881340	-355.779968	77.204758	45.222427	-304.224030	243.673416	57.021275	-347.910004
